<svg xmlns="http://www.w3.org/2000/svg" viewbox="0 0 500 500"><g stroke="black" fill="none" transform="scale(1, -1) translate(0, -500)"><polygon points=" 210.0,298.0 210.0,342.0 226.0,350.0 290.0,350.0 290.0,290.0 226.0,290.0"/><polygon points=" 170.0,290.0 170.0,350.0 210.0,370.0 290.0,370.0 290.0,430.0 330.0,430.0 330.0,270.0 210.0,270.0"/><polygon points=" 290.0,98.0 290.0,142.0 274.0,150.0 210.0,150.0 210.0,90.0 274.0,90.0"/><polygon points=" 330.0,90.0 330.0,150.0 290.0,170.0 210.0,170.0 210.0,230.0 170.0,230.0 170.0,70.0 290.0,70.0"/></g></svg>