<svg xmlns="http://www.w3.org/2000/svg" viewbox="0 0 500 500"><g stroke="black" fill="none" transform="scale(1, -1) translate(0, -500)"><polygon points=" 130.0,146.0 130.0,234.0 138.0,250.0 170.0,250.0 170.0,130.0 138.0,130.0"/><polygon points=" 110.0,130.0 110.0,250.0 130.0,290.0 170.0,290.0 170.0,410.0 190.0,410.0 190.0,90.0 130.0,90.0"/><polygon points=" 370.0,146.0 370.0,234.0 362.0,250.0 330.0,250.0 330.0,130.0 362.0,130.0"/><polygon points=" 390.0,130.0 390.0,250.0 370.0,290.0 330.0,290.0 330.0,410.0 310.0,410.0 310.0,90.0 370.0,90.0"/></g></svg>