<svg xmlns="http://www.w3.org/2000/svg" viewbox="0 0 500 500"><g stroke="black" fill="none" transform="scale(1, -1) translate(0, -500)"><polygon points=" 130.0,298.0 130.0,342.0 138.0,350.0 170.0,350.0 170.0,290.0 138.0,290.0"/><polygon points=" 110.0,290.0 110.0,350.0 130.0,370.0 170.0,370.0 170.0,430.0 190.0,430.0 190.0,270.0 130.0,270.0"/><polygon points=" 202.0,130.0 158.0,130.0 150.0,138.0 150.0,170.0 210.0,170.0 210.0,138.0"/><polygon points=" 210.0,110.0 150.0,110.0 130.0,130.0 130.0,170.0 70.0,170.0 70.0,190.0 230.0,190.0 230.0,130.0"/><polygon points=" 370.0,298.0 370.0,342.0 362.0,350.0 330.0,350.0 330.0,290.0 362.0,290.0"/><polygon points=" 390.0,290.0 390.0,350.0 370.0,370.0 330.0,370.0 330.0,430.0 310.0,430.0 310.0,270.0 370.0,270.0"/><polygon points=" 298.0,130.0 342.0,130.0 350.0,138.0 350.0,170.0 290.0,170.0 290.0,138.0"/><polygon points=" 290.0,110.0 350.0,110.0 370.0,130.0 370.0,170.0 430.0,170.0 430.0,190.0 270.0,190.0 270.0,130.0"/></g></svg>