<svg xmlns="http://www.w3.org/2000/svg" viewbox="0 0 500 500"><g stroke="black" fill="none" transform="scale(1, -1) translate(0, -500)"><path d="M94.80000000000001,388.0C 110.0,372.0 118.8,362.0 124.8,350.8"/><path d="M102.0,337.2C 94.0,368.0 94.0,374.0 94.80000000000001,388.0"/><path d="M102.0,337.2C 110.0,342.0 120.0,348.0 124.8,350.8"/><path d="M71.2,377.59999999999997C 84.0,374.8 86.8,350.8 89.2,330.0"/><path d="M71.2,313.2C 66.8,334.0 66.8,354.0 71.2,377.59999999999997"/><path d="M71.2,313.2C 80.0,320.8 84.0,324.8 89.2,330.0"/><path d="M41.2,75.2C 74.0,130.0 90.0,146.0 114.0,162.79999999999998"/><path d="M26.799999999999997,100.0C 46.0,146.0 62.0,162.0 90.0,178.4"/><path d="M1.6000000000000014,125.2C 26.0,170.0 38.0,182.0 66.0,200.0"/><path d="M-18.0,144.8C 0.0,192.0 24.0,212.0 50.8,224.4"/><path d="M218.4,205.20000000000002C 226.0,190.0 232.0,184.0 246.8,180.0"/><path d="M230.4,217.2C 236.0,210.0 242.0,204.0 246.0,202.4"/><path d="M189.2,250.8C 210.0,275.59999999999997 218.79999999999998,277.2 245.6,275.2"/><path d="M186.0,292.0C 210.0,306.8 224.0,308.8 245.6,300.4"/><path d="M176.0,334.0C 201.2,342.8 220.4,340.4 244.79999999999998,326.79999999999995"/><path d="M250.0,250.0C 234.0,234.0 214.0,214.0 200.8,200.8"/><path d="M250.0,350.0C 250.0,300.0 250.0,280.0 250.0,250.0"/><path d="M143.60000000000002,369.20000000000005C 186.0,366.8 214.39999999999998,363.2 250.0,350.0"/><path d="M356.4,130.8C 384.8,92.8 408.40000000000003,74.8 450.0,50.0"/><path d="M250.0,150.0C 285.6,136.8 314.0,133.2 356.4,130.8"/><path d="M200.8,200.8C 210.0,190.0 230.0,170.0 250.0,150.0"/><path d="M143.60000000000002,369.20000000000005C 197.2,310.0 142.8,266.0 200.8,200.8"/><path d="M50.0,450.0C 91.6,425.2 115.2,407.2 143.60000000000002,369.20000000000005"/><path d="M37.2,275.59999999999997C 27.599999999999998,342.0 33.2,383.59999999999997 50.0,450.0"/><path d="M37.2,275.59999999999997C 72.0,192.0 82.0,182.0 150.0,150.0"/><path d="M-50.0,150.0C -27.60000000000001,198.8 -2.8000000000000043,230.8 37.2,275.59999999999997"/><path d="M-50.0,150.0C -10.0,110.0 14.0,86.0 50.0,50.0"/><path d="M50.0,50.0C 94.0,94.0 120.0,120.0 150.0,150.0"/><path d="M150.0,150.0C 198.8,127.60000000000001 230.8,102.80000000000001 275.59999999999997,62.8"/><path d="M275.59999999999997,62.8C 342.0,72.4 383.59999999999997,66.8 450.0,50.0"/><path d="M96.4,330.79999999999995C 154.0,168.0 182.0,153.2 376.0,81.2"/></g></svg>